<?xml version="1.0" encoding="utf-8"?>
<!-- Generator: Adobe Illustrator 22.1.0, SVG Export Plug-In . SVG Version: 6.00 Build 0)  -->
<svg version="1.1" xmlns="http://www.w3.org/2000/svg" xmlns:xlink="http://www.w3.org/1999/xlink" x="0px" y="0px"
	 viewBox="0 0 50 50" style="enable-background:new 0 0 50 50;" xml:space="preserve">
<style type="text/css">
	.st0{display:none;}
	.st1{display:inline;}
	.st2{fill:none;stroke:#000000;stroke-width:3.3449;stroke-miterlimit:10;}
</style>
<g id="Ebene_2" class="st0">
	<g class="st1">
		<path class="st2" d="M42.3,38.6c0,1.9-0.6,3.6-1.7,5c-1.1,1.4-2.5,2.1-4.1,2.1h-23c-1.6,0-2.9-0.7-4.1-2.1c-1.1-1.4-1.7-3.1-1.7-5
			c0-1.5,0.1-3,0.2-4.4c0.2-1.4,0.4-2.7,0.8-4.1c0.4-1.4,0.9-2.6,1.6-3.5c0.7-1,1.5-1.8,2.5-2.4c1-0.6,2.2-1,3.7-0.9
			c2.4,2.3,5.2,3.5,8.4,3.5s6.1-1.2,8.5-3.5c1.4,0,2.6,0.3,3.6,0.9c1.1,0.6,1.9,1.4,2.5,2.4c0.6,1,1.1,2.2,1.6,3.5
			c0.5,1.4,0.7,2.7,0.9,4.1C42.2,35.6,42.3,37.1,42.3,38.6z M35.4,14.6c0,2.8-1,5.3-3,7.3c-2,2-4.5,3-7.4,3c-2.9,0-5.3-1-7.3-3
			c-2-2-3-4.5-3-7.3c-0.1-2.8,1-5.3,3-7.4c2.1-2.1,4.5-3.1,7.3-3c2.8,0,5.2,1,7.4,3C34.5,9.3,35.5,11.7,35.4,14.6z"/>
	</g>
</g>
<g id="Ebene_3" class="st0">
	<g class="st1">
		<path d="M40.2,3.1c0.4,0,0.8,0.1,1.2,0.3c0.7,0.3,1.2,0.7,1.5,1.2c0.3,0.5,0.5,1.1,0.6,1.8v37.2c0,0.7-0.2,1.3-0.6,1.8
			c-0.4,0.6-0.9,0.9-1.5,1.2c-0.3,0.1-0.8,0.2-1.2,0.2c-0.9,0-1.7-0.3-2.4-0.9L25,33.7L12.3,45.9c-0.7,0.7-1.5,1-2.4,1
			c-0.4,0-0.9-0.1-1.3-0.3C8,46.3,7.5,46,7.1,45.4s-0.6-1.2-0.6-1.8V6.4c0-0.7,0.2-1.3,0.6-1.8C7.5,4,8,3.7,8.6,3.4
			C9,3.2,9.5,3.1,9.9,3.1H40.2z M39.8,6.9H10.2v35.8L25,28.5l2.6,2.4l12.2,11.7V6.9z"/>
	</g>
</g>
<g id="Ebene_4">
	<g>
		<path d="M42.3,12.3c0.5,0.5,0.9,1.1,1.2,1.9c0.3,0.8,0.5,1.5,0.5,2.2v28.4c0,0.7-0.2,1.2-0.7,1.7c-0.4,0.4-1,0.7-1.7,0.7H8.4
			c-0.7,0-1.2-0.2-1.7-0.7s-0.7-1-0.7-1.7V5.3C6,4.6,6.3,4,6.7,3.6c0.5-0.4,1-0.7,1.7-0.7h22.1c0.6,0,1.4,0.2,2.2,0.5
			c0.8,0.3,1.4,0.7,1.9,1.2L42.3,12.3z M40.8,44V18.7H30.6c-0.7,0-1.2-0.2-1.7-0.7s-0.7-1-0.7-1.6V6h-19v38H40.8z M15.5,22.6
			c0-0.2,0.1-0.4,0.2-0.5c0.1-0.1,0.3-0.2,0.6-0.2h17.4c0.2,0,0.4,0.1,0.6,0.2c0.1,0.1,0.2,0.3,0.2,0.5v1.6c0,0.2-0.1,0.4-0.2,0.6
			c-0.1,0.1-0.3,0.2-0.6,0.2H16.3c-0.2,0-0.4-0.1-0.6-0.2c-0.1-0.1-0.2-0.3-0.2-0.6V22.6z M33.7,28.1c0.2,0,0.4,0.1,0.6,0.2
			c0.1,0.1,0.2,0.3,0.2,0.6v1.6c0,0.2-0.1,0.4-0.2,0.6c-0.1,0.1-0.3,0.2-0.6,0.2H16.3c-0.2,0-0.4-0.1-0.6-0.2s-0.2-0.3-0.2-0.6v-1.6
			c0-0.2,0.1-0.4,0.2-0.6s0.3-0.2,0.6-0.2H33.7z M33.7,34.5c0.2,0,0.4,0.1,0.6,0.2c0.1,0.1,0.2,0.3,0.2,0.6v1.6
			c0,0.2-0.1,0.4-0.2,0.6c-0.1,0.1-0.3,0.2-0.6,0.2H16.3c-0.2,0-0.4-0.1-0.6-0.2c-0.1-0.1-0.2-0.3-0.2-0.6v-1.6
			c0-0.2,0.1-0.4,0.2-0.6c0.1-0.1,0.3-0.2,0.6-0.2H33.7z M31.3,6.2v9.3h9.3c-0.1-0.5-0.3-0.8-0.5-1l-7.7-7.7
			C32.1,6.6,31.8,6.4,31.3,6.2z"/>
	</g>
</g>
<g id="Ebene_5" class="st0">
	<g class="st1">
		<path d="M47.2,22c1.1,0.8,1.6,1.9,1.6,3.3c0,1.2-0.4,2.2-1.2,3c-0.8,0.9-1.9,1.3-3.1,1.3h-2.1v12.9c0,1.2-0.4,2.3-1.3,3.1
			c-0.9,0.9-1.9,1.3-3.1,1.2H12c-1.2,0-2.2-0.4-3-1.2c-0.9-0.8-1.3-1.9-1.3-3.1V29.7H5.6c-1.2,0-2.2-0.4-3.1-1.3
			c-0.8-0.9-1.2-1.9-1.2-3c0-1.3,0.5-2.4,1.5-3.3c2.2-1.8,5-4.2,8.5-7.2c3.5-3,6.4-5.5,8.8-7.5L25,3l1.5,1.2L30,7.4
			c2.3,2,5.3,4.5,8.7,7.5L47.2,22z M39.1,25.3h7.1c-7-5.8-14-11.9-21.2-18.1c-7.2,6.2-14.2,12.2-21.2,18.1h7.1v18.8h7.1V30h14.2
			v14.1h7.1V25.3z M29.4,42.6V31.8h-8.7v10.8H29.4z"/>
	</g>
</g>
</svg>
